<svg xmlns="http://www.w3.org/2000/svg" viewBox="0 0 553.35 161.98"><defs><style>.cls-1{fill:none;}</style></defs><title>oknotmad_oknm_logo_short</title><g id="Layer_2" data-name="Layer 2"><g id="Layer_1-2" data-name="Layer 1"><path d="M117.88,96.1v6.44c0,37.89-21.56,59.44-58.78,59.44C21.66,162,0,140.43,0,102.77V96.43C0,62.1,21.66,37.88,59.1,37.88,96.32,37.88,117.88,61.77,117.88,96.1Zm-74.77-.78v9c0,11.78,2.66,26.78,15.88,26.78s15.78-14.78,15.78-26.78v-9c0-13.22-3-26.55-15.78-26.55S43.11,82.32,43.11,95.32Z"/><path d="M370.48,41.22h41V61.55h2.11c2.44-9.44,12.11-22,32.66-22,18,0,28.89,9.22,32.22,22h1.67c3-9.89,15.22-22,36-22,23.88,0,37.21,16.11,37.21,39v82.1H510.91V92.21c0-15.11-7.44-18.88-14.33-18.88-8.44,0-14.55,5.55-14.55,19.22v68.1H441.81V92.32c0-15.66-7.78-19-14.44-19-7.67,0-14.56,4.44-14.56,19v68.33H370.48Z"/><polygon class="cls-1" points="243.18 159.22 243.18 41.79 202.79 100.12 243.18 159.22"/><path d="M320.72,39C300,39,289.17,51.35,286.17,60.24h-2V40.9H200.79l-32,46.21V0H126.42V159.65h42.37V113.27l32,46.85H285.5V93.68c0-13.55,7.56-19.89,16.11-19.89,6.78,0,15.78,3.45,15.78,19.56v66.77h42.44V82.79C359.83,53.57,344.5,39,320.72,39ZM243.18,159.21l-40.39-59.09,40.39-58.33Z"/></g></g></svg>